<svg id="Capa_1" enable-background="new 0 0 512 512" height="512" viewBox="0 0 512 512" width="512" xmlns="http://www.w3.org/2000/svg" xmlns:xlink="http://www.w3.org/1999/xlink"><linearGradient id="SVGID_1_" gradientUnits="userSpaceOnUse" x1="104.34" x2="488.547" y1="440.466" y2="56.259"><stop offset="0" stop-color="#fff" stop-opacity="0"/><stop offset=".2617" stop-color="#ededff" stop-opacity=".416"/><stop offset=".629" stop-color="#d8d8ff"/></linearGradient><linearGradient id="SVGID_00000052811192230535779160000003427858142390599558_" gradientUnits="userSpaceOnUse" x1="256" x2="256" y1="469.477" y2="83.815"><stop offset="0" stop-color="#ff4d4d" stop-opacity=".4"/><stop offset=".1463" stop-color="#ff4d4d" stop-opacity=".342"/><stop offset="1" stop-color="#ff4d4d" stop-opacity="0"/></linearGradient><g><g><path d="m494.189 391.904c-34.395-102.635-125.942-141.855-40.377-258.987 88.39-120.999-76.801-161.06-168.001-113.29-33.616 17.608-65.006 39.008-98.12 57.558-33.812 18.941-125.975-40.916-134.968 22.783-4.121 29.193 29.781 52.269 31.273 83.383 1.743 36.336-28.078 51.202-51.534 71.394-35.673 30.71-16.936 124.87 31.587 135.051 22.938 4.813 44.086-12.428 66.073-20.534 87.993-32.442 130.704 64.719 181.72 116.821 59.946 61.22 212.352 7.617 182.347-94.179z" fill="url(#SVGID_1_)"/></g><g><g><g><g><g><g><g><g><g><g><path d="m347.546 350.607h-104.084v-29.221h97.2c3.802 0 6.884 3.082 6.884 6.884z" fill="#9393ff"/></g><g><g><g><g><path d="m260.824 339.761-11.453-19.154c-1.243-2.079-3.487-3.351-5.908-3.351h-54.841l-12.288 154.948h171.62c3.802 0 6.884-3.082 6.884-6.884v-118.675c0-3.802-3.082-6.884-6.884-6.884z" fill="#ffc498"/></g><path d="m260.82 339.76h23.54v24.1c0 3.87-3.14 7-7 7h-42.72c-3.86 0-7-3.13-7-7v-46.6h15.82c2.42 0 4.67 1.27 5.91 3.35z" fill="#fa6"/><g><g><path d="m234.999 434.119h-14.98c-2.761 0-5-2.239-5-5s2.239-5 5-5h14.98c2.761 0 5 2.239 5 5s-2.239 5-5 5z" fill="#9393ff"/></g><g><path d="m256.261 451.931h-36.242c-2.761 0-5-2.239-5-5s2.239-5 5-5h36.242c2.762 0 5 2.239 5 5s-2.239 5-5 5z" fill="#9393ff"/></g></g></g><path d="m176.334 472.204c-10.588 0-19.172-8.583-19.172-19.172v-128.892c0-3.802 3.082-6.884 6.884-6.884h24.575c3.802 0 6.884 3.082 6.884 6.884v128.892c.001 10.588-8.583 19.172-19.171 19.172z" fill="#ff9c33"/></g><path d="m334.071 453.835h-44.345c-1.901 0-3.442-1.541-3.442-3.442v-27.502c0-1.901 1.541-3.442 3.442-3.442h44.345c1.901 0 3.442 1.541 3.442 3.442v27.502c0 1.901-1.541 3.442-3.442 3.442z" fill="#ffe7db"/></g></g></g></g><g><g><path d="m301.162 369.368c-2.762 0-5-2.239-5-5v-.115c0-2.761 2.238-5 5-5s5 2.239 5 5v.115c0 2.761-2.238 5-5 5z" fill="#fff"/></g><g><path d="m316.838 369.368c-2.762 0-5-2.239-5-5v-.115c0-2.761 2.238-5 5-5s5 2.239 5 5v.115c0 2.761-2.238 5-5 5z" fill="#fff"/></g><g><path d="m332.514 369.368c-2.762 0-5-2.239-5-5v-.115c0-2.761 2.238-5 5-5s5 2.239 5 5v.115c0 2.761-2.239 5-5 5z" fill="#fff"/></g></g></g></g><g><g><path d="m382.166 167.142c-4.183-47.537-44.092-84.82-92.715-84.82-31.26 0-58.919 15.41-75.8 39.047-28.086.833-52.217 17.404-63.882 41.199-28.477.895-51.291 24.246-51.291 52.94 0 29.262 23.721 52.983 52.983 52.983h209.077c29.262 0 52.983-23.721 52.983-52.983.001-21.555-12.878-40.09-31.355-48.366z" fill="#ffd5ba"/><g fill="#ffc498"><path d="m309.06 268.49h-106.11c-1.21-2.5-.97-5.68 1.35-8l46.75-46.75c2.73-2.73 7.17-2.73 9.9 0l46.75 46.75c2.32 2.32 2.56 5.5 1.36 8z"/><path d="m313.583 85.507c-6.33 8.96-10.062 19.886-10.062 31.691 0 30.376 24.624 55 55 55 8.454 0 16.46-1.912 23.616-5.32-3.567-39.253-31.503-71.447-68.554-81.371z"/><path d="m151.461 248.491c-18.187 0-32.983-14.796-32.983-32.983 0-17.914 14.021-32.387 31.92-32.95l12.031-.378 5.298-10.808c8.786-17.921 26.61-29.421 46.517-30.011l9.917-.294 5.766-8.074c13.716-19.205 35.968-30.67 59.524-30.67 18.389 0 35.96 6.854 49.476 19.297 13.442 12.375 21.722 29.165 23.316 47.276l1.029 11.7 10.719 4.8c11.864 5.313 19.53 17.133 19.53 30.112 0 18.187-14.796 32.983-32.983 32.983z"/></g><path d="m362.243 168.895c-1.594-18.111-9.874-34.9-23.316-47.276-9.607-8.845-21.267-14.848-33.809-17.59-1.04 4.219-1.597 8.628-1.597 13.17 0 30.376 24.624 55 55 55 1.346 0 2.677-.066 3.999-.161z" fill="#fa6"/><g><g><path d="m352.564 210.61h-14.979c-2.762 0-5-2.239-5-5s2.238-5 5-5h14.979c2.762 0 5 2.239 5 5s-2.238 5-5 5z" fill="#fff"/></g><g><path d="m352.564 228.422h-30.241c-2.762 0-5-2.239-5-5s2.238-5 5-5h30.241c2.762 0 5 2.239 5 5s-2.238 5-5 5z" fill="#fff"/></g></g></g><g><path d="m227.643 248.441v91.423c0 3.866 3.134 7 7 7h42.714c3.866 0 7-3.134 7-7v-91.423h18.392c6.236 0 9.359-7.54 4.95-11.95l-46.749-46.749c-2.734-2.734-7.166-2.734-9.9 0l-46.749 46.749c-4.41 4.41-1.287 11.95 4.95 11.95z" fill="#6c6cff"/></g><path d="m382.166 167.142c-4.183-47.537-44.091-84.82-92.715-84.82-31.26 0-58.919 15.41-75.8 39.047-28.086.833-52.217 17.404-63.882 41.199-28.477.895-51.291 24.246-51.291 52.94 0 29.262 23.721 52.983 52.983 52.983h76.182v48.765h-63.597c-3.802 0-6.884 3.082-6.884 6.884v128.892c0 10.588 8.583 19.172 19.172 19.172h171.62c3.802 0 6.884-3.082 6.884-6.884v-118.675c0-3.802-3.082-6.884-6.884-6.884h-.407v-11.49c0-3.802-3.082-6.884-6.884-6.884h-56.305v-52.896h76.182c29.262 0 52.983-23.721 52.983-52.983-.001-21.555-12.88-40.09-31.357-48.366z" fill="url(#SVGID_00000052811192230535779160000003427858142390599558_)"/></g></g><g><g><path d="m316.13 128.24c-7.88-9.51-12.61-21.73-12.61-35.04l55-5 55 5c0 13.31-4.73 25.53-12.61 35.04z" fill="#8282ff"/><path d="m380.39 93.2c0 13.31-1.88 25.53-5.02 35.04h-33.7c-3.14-9.51-5.02-21.73-5.02-35.04 0-1.01.01-2.01.03-3.01l21.84-1.99 21.84 1.99c.02 1 .03 2 .03 3.01z" fill="#6c6cff"/><path d="m400.91 58.15c7.87 9.52 12.61 21.73 12.61 35.05h-33.13l-21.87-5-21.87 5h-33.13c0-13.32 4.74-25.53 12.61-35.05z" fill="#9393ff"/><path d="m380.39 93.2h-43.74c0-13.32 1.88-25.53 5.02-35.05h33.7c3.14 9.52 5.02 21.73 5.02 35.05z" fill="#8282ff"/></g><g><path d="m378.51 115.555c8.794 2.686 16.487 7.092 22.4 12.689-10.09 12.19-25.33 19.95-42.39 19.95-17.05 0-32.3-7.76-42.39-19.95 5.919-5.596 13.61-10.002 22.401-12.688z" fill="#6c6cff"/><path d="m338.53 115.554c6.2-1.89 12.94-2.93 19.99-2.93s13.8 1.04 19.99 2.93c-3.41 19.23-11.08 32.64-19.99 32.64s-16.58-13.41-19.99-32.64z" fill="#4d4dff"/><g><path d="m378.51 70.843c8.794-2.686 16.487-7.092 22.4-12.689-10.08-12.19-25.33-19.96-42.39-19.96s-32.3 7.77-42.39 19.96c5.919 5.596 13.61 10.002 22.401 12.688z" fill="#8282ff"/></g><path d="m338.53 70.844c3.41-19.24 11.08-32.65 19.99-32.65s16.58 13.41 19.99 32.65c-6.19 1.89-12.94 2.93-19.99 2.93s-13.79-1.04-19.99-2.93z" fill="#6c6cff"/></g></g></g></g><g><path d="m449.619 217.287c-2.762 0-5-2.239-5-5 0-3.033-2.468-5.5-5.5-5.5-2.762 0-5-2.239-5-5s2.238-5 5-5c3.032 0 5.5-2.467 5.5-5.5 0-2.761 2.238-5 5-5s5 2.239 5 5c0 3.033 2.468 5.5 5.5 5.5 2.762 0 5 2.239 5 5s-2.238 5-5 5c-3.032 0-5.5 2.467-5.5 5.5 0 2.761-2.238 5-5 5z" fill="#ff9c33"/></g><g><path d="m118.478 403.056c-2.761 0-5-2.239-5-5 0-3.033-2.467-5.5-5.5-5.5-2.761 0-5-2.239-5-5s2.239-5 5-5c3.033 0 5.5-2.467 5.5-5.5 0-2.761 2.239-5 5-5s5 2.239 5 5c0 3.033 2.467 5.5 5.5 5.5 2.761 0 5 2.239 5 5s-2.239 5-5 5c-3.033 0-5.5 2.467-5.5 5.5 0 2.761-2.239 5-5 5z" fill="#ff9c33"/></g><g><path d="m98.479 336.852c-2.761 0-5-2.239-5-5 0-3.033-2.467-5.5-5.5-5.5-2.761 0-5-2.239-5-5s2.239-5 5-5c3.033 0 5.5-2.467 5.5-5.5 0-2.761 2.239-5 5-5s5 2.239 5 5c0 3.033 2.467 5.5 5.5 5.5 2.761 0 5 2.239 5 5s-2.239 5-5 5c-3.033 0-5.5 2.467-5.5 5.5 0 2.761-2.239 5-5 5z" fill="#ff6c6c"/></g><g><path d="m183.937 88.817c-1.28 0-2.559-.488-3.536-1.464-1.953-1.953-1.953-5.119 0-7.071l10-10c1.953-1.952 5.118-1.952 7.071 0 1.953 1.953 1.953 5.119 0 7.071l-10 10c-.976.976-2.255 1.464-3.535 1.464z" fill="#6c6cff"/></g><g><path d="m432.966 283.938c-1.279 0-2.56-.488-3.535-1.464-1.953-1.953-1.953-5.119 0-7.071l10-10c1.951-1.952 5.119-1.952 7.07 0 1.953 1.953 1.953 5.119 0 7.071l-10 10c-.976.976-2.256 1.464-3.535 1.464z" fill="#6c6cff"/></g></g></g></svg>